<?xml version="1.0" encoding="utf-8"?>
<!-- Generator: Adobe Illustrator 24.2.1, SVG Export Plug-In . SVG Version: 6.00 Build 0)  -->
<svg version="1.1" id="Layer_1" xmlns="http://www.w3.org/2000/svg" xmlns:xlink="http://www.w3.org/1999/xlink" x="0px" y="0px"
	 viewBox="0 0 622.2 221.9" style="enable-background:new 0 0 622.2 221.9;" xml:space="preserve">
<style type="text/css">
	.st0{fill:#1E1E1E;}
	.st1{fill:url(#SVGID_1_);}
	.st2{fill:#FFFFFF;}
</style>
<g>
	<path class="st0" d="M420.7,100.9c4.5,0.1,8.4-3.7,8.4-8.2c0.1-4.5-3.6-8.4-8.3-8.5c-4.6-0.1-8.3,3.6-8.4,8.1
		C412.3,97,416,100.8,420.7,100.9z"/>
	<path class="st0" d="M263.8,107.4c-3.7,0-6.8,3-6.8,6.7v35.2c0,10.8-8.8,19.6-19.6,19.6s-19.6-8.8-19.6-19.6v-35.2
		c0-3.7-3-6.7-6.8-6.7c-3.7,0-6.8,3-6.8,6.7v35.2c0,18.3,14.8,33.1,33.1,33.1s33.1-14.8,33.1-33.1v-35.2
		C270.5,110.4,267.5,107.4,263.8,107.4z"/>
	<path class="st0" d="M184.3,84.6c-3.7,0-6.8,3-6.8,6.7v84.4c0,3.7,3,6.7,6.8,6.7s6.8-3,6.8-6.7V91.4
		C191.1,87.6,188,84.6,184.3,84.6z"/>
	<path class="st0" d="M420.7,107.4c-3.7,0-6.8,3-6.8,6.7v61.6c0,3.7,3,6.7,6.8,6.7c3.7,0,6.8-3,6.8-6.7v-61.6
		C427.5,110.4,424.5,107.4,420.7,107.4z"/>
	<path class="st0" d="M157.6,107.4c-3.7,0-6.8,3-6.8,6.7v35.2c0,10.8-8.8,19.6-19.6,19.6s-19.6-8.8-19.6-19.6v-35.2
		c0-3.7-3-6.7-6.8-6.7c-3.7,0-6.8,3-6.8,6.7v35.2c0,18.3,14.8,33.1,33.1,33.1s33.1-14.8,33.1-33.1v-35.2
		C164.4,110.4,161.3,107.4,157.6,107.4z"/>
	<path class="st0" d="M367.6,107.4c-10.8,0-20.3,5.2-26.4,13.1c-6.1-8-15.6-13.1-26.4-13.1c-18.3,0-33.1,14.8-33.1,33.1v35.2
		c0,3.7,3,6.7,6.8,6.7c3.7,0,6.8-3,6.8-6.7v-35.2c0-10.8,8.8-19.6,19.6-19.6c10.8,0,19.6,8.8,19.6,19.6v35.2c0,1.9,0.8,3.5,2,4.8
		c1.2,1.2,2.9,2,4.8,2l0,0c0.5,0,0.9,0,1.4-0.1c0.4-0.1,0.9-0.2,1.3-0.4c0.8-0.3,1.5-0.8,2.1-1.5c1.2-1.2,2-2.9,2-4.8v-35.2
		c0-10.8,8.8-19.6,19.6-19.6c10.8,0,19.6,8.8,19.6,19.6v35.2c0,3.7,3,6.7,6.8,6.7c3.7,0,6.8-3,6.8-6.7v-35.2
		C400.8,122.2,386,107.4,367.6,107.4z"/>
	<path class="st0" d="M52.1,107.4c-20.8,0-37.6,16.8-37.6,37.6l0,0v59.7c0,3.7,3,6.7,6.8,6.7c3.7,0,6.8-3,6.8-6.7V145l0,0
		c0-13.3,10.8-24.1,24.1-24.1s24.1,10.8,24.1,24.1s-10.8,24.1-24.1,24.1c-3.7,0-6.8,3-6.8,6.7s3,6.7,6.8,6.7
		c20.8,0,37.6-16.8,37.6-37.6C89.7,124.2,72.9,107.4,52.1,107.4z"/>
	<path class="st0" d="M155.1,99.8L155.1,99.8c0-0.2,0-0.4-0.1-0.5c-0.3-3-2.7-5.3-5.8-5.3c-0.9,0-1.8,0.2-2.6,0.6
		c-1.4-6-6.7-10.5-13.1-10.5c-5.6,0-10.4,3.4-12.5,8.3c-1.4-0.9-3.1-1.4-4.8-1.4c-4.9,0-8.9,4-8.9,8.9c0,2.6,2,2.9,5.3,2.9H152
		C154,102.9,155.1,101.4,155.1,99.8L155.1,99.8z"/>
</g>
<linearGradient id="SVGID_1_" gradientUnits="userSpaceOnUse" x1="462.1" y1="137.3" x2="613.3" y2="137.3" gradientTransform="matrix(1 0 0 -1 0 224)">
	<stop  offset="0" style="stop-color:#5A1865"/>
	<stop  offset="0.1973" style="stop-color:#5D1866"/>
	<stop  offset="0.3535" style="stop-color:#671668"/>
	<stop  offset="0.4958" style="stop-color:#78146C"/>
	<stop  offset="0.6297" style="stop-color:#8F1072"/>
	<stop  offset="0.7578" style="stop-color:#AE0C7A"/>
	<stop  offset="0.8798" style="stop-color:#D30683"/>
	<stop  offset="0.9979" style="stop-color:#FE008E"/>
	<stop  offset="1" style="stop-color:#FF008E"/>
</linearGradient>
<circle class="st1" cx="537.7" cy="86.7" r="75.6"/>
<path class="st2" d="M591.6,54.7c-1.7-3.5-4.9-6-8.8-6.7L529,38.1c-5.8-1.1-11.5,2.2-13.6,7.7l-2.6,6.8l-7.5-1.5
	c-4.7-0.9-9.4,0.9-12.2,4.8c-2.8,3.9-3.2,8.9-0.9,13.1l5.8,10.6c0.6,1,0.6,2.2,0.2,3.3l-10.5,24.4c-1.4,3.3-1.3,7.1,0.3,10.3
	c1.6,3.2,4.5,5.6,8,6.4l48.2,11.6c1,0.2,1.9,0.3,2.9,0.3c4.4,0,8.6-2.4,10.8-6.5l3.3-6.3l9.7,2.5c4.9,1.3,9.8-0.5,12.8-4.5
	s3.3-9.2,0.8-13.5l-8-13.5l15-28.3C593.2,62.2,593.3,58.2,591.6,54.7z M500,60.8c0.3-0.4,1.3-1.5,3-1.5c0.2,0,0.5,0,0.8,0.1
	l46.5,9.1c1.1,0.2,2,0.9,2.5,1.8l10.1,17.2l-56.6-10.4c-0.2-0.6-0.4-1.1-0.7-1.6l-5.8-10.6C498.6,62.9,499.6,61.3,500,60.8z
	 M550.4,125.4c-0.8,1.5-2.5,2.3-4.2,1.9L498,115.6c-1.5-0.4-2.2-1.4-2.5-2s-0.7-1.8-0.1-3.2L506,86.1c0.1-0.2,0.1-0.3,0.2-0.5
	l59.4,10.9L550.4,125.4z M577.2,111.8c1.2,2,0.1,3.7-0.2,4.2c-0.4,0.5-1.7,2-3.9,1.4l-7.8-2l6.6-12.6L577.2,111.8z M584,61.7
	l-12.5,23.7L559.9,66c-1.8-3-4.7-5.1-8.1-5.8l-30.6-6l2.1-5.5c0.6-1.7,2.4-2.7,4.2-2.4l53.8,9.9c1.2,0.2,2.2,1,2.7,2.1
	C584.5,59.4,584.5,60.7,584,61.7z"/>
</svg>
