<?xml version="1.0" encoding="utf-8"?>
<!-- Generator: Adobe Illustrator 24.2.1, SVG Export Plug-In . SVG Version: 6.00 Build 0)  -->
<svg version="1.1" id="Layer_1" xmlns="http://www.w3.org/2000/svg" xmlns:xlink="http://www.w3.org/1999/xlink" x="0px" y="0px"
	 viewBox="0 0 265.4 265.4" style="enable-background:new 0 0 265.4 265.4;" xml:space="preserve">
<style type="text/css">
	.st0{fill:#FFFFFF;}
	.st1{clip-path:url(#SVGID_2_);fill:url(#SVGID_3_);}
	.st2{clip-path:url(#SVGID_5_);fill:url(#SVGID_6_);}
	.st3{clip-path:url(#SVGID_8_);}
	.st4{fill:#EDEDEE;}
	.st5{fill:#353635;}
	.st6{fill:url(#SVGID_9_);}
	.st7{fill:url(#SVGID_10_);}
	.st8{fill:url(#SVGID_11_);}
	.st9{fill:url(#SVGID_12_);}
	.st10{fill:url(#SVGID_13_);}
	.st11{fill:url(#SVGID_14_);}
	.st12{fill:url(#SVGID_15_);}
	.st13{fill:url(#SVGID_16_);}
	.st14{fill:url(#SVGID_17_);}
	.st15{fill:url(#SVGID_18_);}
	.st16{fill:url(#SVGID_19_);}
	.st17{fill:url(#SVGID_20_);}
</style>
<circle class="st0" cx="132.7" cy="132.7" r="132.7"/>
<g>
	<g>
		<g>
			<defs>
				<path id="SVGID_1_" d="M211.1,143.4c-0.8,0-1.5,0.1-2.3,0.1c2-6.8,3.1-14,3.1-21.4c0-11.7-2.6-22.6-7.3-32.2
					c-0.4-0.8-1.7-2.8-3.7-5.4c9-1.8,15.8-9.7,15.8-19.2c0-10.8-8.8-19.6-19.6-19.6c-9.3,0-17.1,6.5-19.1,15.2
					c-0.1-0.1-0.2-0.1-0.2-0.2c-12.1-7.3-26.8-11.4-43.1-11.4c-24.4,0-43.5,8.4-56.2,22.5c-4.3-4.9-10.6-8-17.6-8
					C48,63.9,37.5,75.1,38.1,88c0.6,12.2,10.2,20.8,19.8,22.5c0.9,0.2,2.1,0.9,2.4,1.8c1,2.6,0.4,5.5,0.4,9.7
					c0,9.4,1.7,18.5,4.9,26.8c-11.8,0.7-21.1,10.6-20.8,22.6c0.4,13.3,12.9,22.8,26.1,21.2c1.2-0.2,2.4-0.4,3.8-0.7
					c4.1-0.9,8.5,0.5,10.4,2.1c2.8,2.2,4.3,2.9,5.5,6c2.9,7.7,7.9,14.9,16.4,16.1c9.3,1.3,19.2-1.7,25-14.1c0.9-2.2,3.4-2.5,4.6-2.5
					c1.9,0,3.5,0.7,5.5,2.2c4.5,6.8,13.2,9.6,23.4,9.6c14.7,0,26.5-12,26.5-26.7c0-3.4,0.9-3.7,2.5-4.6c1.6-0.9,3-0.3,6.2,0.4
					c4.1,0.9,7.7,2.3,12.5,1.8c8.7-0.9,15.9-7.7,17.3-16.3C232.4,153.9,223,143.4,211.1,143.4z"/>
			</defs>
			<clipPath id="SVGID_2_">
				<use xlink:href="#SVGID_1_"  style="overflow:visible;"/>
			</clipPath>
			
				<linearGradient id="SVGID_3_" gradientUnits="userSpaceOnUse" x1="181.759" y1="193.1868" x2="216.553" y2="211.0744" gradientTransform="matrix(1 0 0 -1 0 266.525)">
				<stop  offset="0" style="stop-color:#5A2466"/>
				<stop  offset="1" style="stop-color:#ED248C"/>
			</linearGradient>
			<circle class="st1" cx="197.2" cy="65.4" r="19.6"/>
		</g>
		<g>
			<defs>
				<path id="SVGID_4_" d="M211.1,143.4c-0.8,0-1.5,0.1-2.3,0.1c2-6.8,3.1-14,3.1-21.4c0-11.7-2.6-22.6-7.3-32.2
					c-0.4-0.8-1.7-2.8-3.7-5.4c9-1.8,15.8-9.7,15.8-19.2c0-10.8-8.8-19.6-19.6-19.6c-9.3,0-17.1,6.5-19.1,15.2
					c-0.1-0.1-0.2-0.1-0.2-0.2c-12.1-7.3-26.8-11.4-43.1-11.4c-24.4,0-43.5,8.4-56.2,22.5c-4.3-4.9-10.6-8-17.6-8
					C48,63.9,37.5,75.1,38.1,88c0.6,12.2,10.2,20.8,19.8,22.5c0.9,0.2,2.1,0.9,2.4,1.8c1,2.6,0.4,5.5,0.4,9.7
					c0,9.4,1.7,18.5,4.9,26.8c-11.8,0.7-21.1,10.6-20.8,22.6c0.4,13.3,12.9,22.8,26.1,21.2c1.2-0.2,2.4-0.4,3.8-0.7
					c4.1-0.9,8.5,0.5,10.4,2.1c2.8,2.2,4.3,2.9,5.5,6c2.9,7.7,7.9,14.9,16.4,16.1c9.3,1.3,19.2-1.7,25-14.1c0.9-2.2,3.4-2.5,4.6-2.5
					c1.9,0,3.5,0.7,5.5,2.2c4.5,6.8,13.2,9.6,23.4,9.6c14.7,0,26.5-12,26.5-26.7c0-3.4,0.9-3.7,2.5-4.6c1.6-0.9,3-0.3,6.2,0.4
					c4.1,0.9,7.7,2.3,12.5,1.8c8.7-0.9,15.9-7.7,17.3-16.3C232.4,153.9,223,143.4,211.1,143.4z"/>
			</defs>
			<clipPath id="SVGID_5_">
				<use xlink:href="#SVGID_4_"  style="overflow:visible;"/>
			</clipPath>
			
				<linearGradient id="SVGID_6_" gradientUnits="userSpaceOnUse" x1="38.0755" y1="134.674" x2="230.6695" y2="134.674" gradientTransform="matrix(1 0 0 -1 0 266.525)">
				<stop  offset="0" style="stop-color:#5A2466"/>
				<stop  offset="0.1181" style="stop-color:#632367"/>
				<stop  offset="0.3171" style="stop-color:#7D246F"/>
				<stop  offset="0.5728" style="stop-color:#A7227B"/>
				<stop  offset="0.8721" style="stop-color:#E30587"/>
				<stop  offset="1" style="stop-color:#ED248C"/>
			</linearGradient>
			<path class="st2" d="M211.1,143.4c-0.8,0-1.5,0.1-2.3,0.1c2-6.8,3.1-14,3.1-21.4c0-11.7-2.6-22.6-7.3-32.2
				c-1.4-2.9-15.5-21.9-26.8-29c-12.1-7.3-26.8-11.4-43.1-11.4c-24.4,0-43.5,8.4-56.2,22.5c-4.3-4.9-10.6-8-17.6-8
				C48,64.1,37.5,75.3,38.1,88.2c0.6,12.2,10.2,20.8,19.8,22.5c0.9,0.2,2.1,0.9,2.4,1.8c1,2.6,0.4,5.5,0.4,9.7
				c0,9.4,1.7,18.5,4.9,26.8c-11.8,0.7-21.1,10.6-20.8,22.6c0.4,13.3,12.9,22.8,26.1,21.2c1.2-0.2,2.4-0.4,3.8-0.7
				c4.1-0.9,8.5,0.5,10.4,2.1c2.8,2.2,4.3,2.9,5.5,6c2.9,7.7,8,12.3,16.5,13.5c9.3,1.3,19.1,0.9,24.8-11.5c0.9-2.2,3.4-2.5,4.6-2.5
				c1.9,0,3.5,0.7,5.5,2.2c4.5,6.8,13.2,9.6,23.4,9.6c14.7,0,26.5-12,26.5-26.7c0-3.4,0.9-3.7,2.5-4.6c1.6-0.9,3-0.3,6.2,0.4
				c4.1,0.9,7.7,2.3,12.5,1.8c8.7-0.9,15.9-7.7,17.3-16.3C232.4,153.9,223,143.4,211.1,143.4z"/>
		</g>
		<g>
			<defs>
				<path id="SVGID_7_" d="M211.1,143.4c-0.8,0-1.5,0.1-2.3,0.1c2-6.8,3.1-14,3.1-21.4c0-11.7-2.6-22.6-7.3-32.2
					c-0.4-0.8-1.7-2.8-3.7-5.4c9-1.8,15.8-9.7,15.8-19.2c0-10.8-8.8-19.6-19.6-19.6c-9.3,0-17.1,6.5-19.1,15.2
					c-0.1-0.1-0.2-0.1-0.2-0.2c-12.1-7.3-26.8-11.4-43.1-11.4c-24.4,0-43.5,8.4-56.2,22.5c-4.3-4.9-10.6-8-17.6-8
					C48,63.9,37.5,75.1,38.1,88c0.6,12.2,10.2,20.8,19.8,22.5c0.9,0.2,2.1,0.9,2.4,1.8c1,2.6,0.4,5.5,0.4,9.7
					c0,9.4,1.7,18.5,4.9,26.8c-11.8,0.7-21.1,10.6-20.8,22.6c0.4,13.3,12.9,22.8,26.1,21.2c1.2-0.2,2.4-0.4,3.8-0.7
					c4.1-0.9,8.5,0.5,10.4,2.1c2.8,2.2,4.3,2.9,5.5,6c2.9,7.7,7.9,14.9,16.4,16.1c9.3,1.3,19.2-1.7,25-14.1c0.9-2.2,3.4-2.5,4.6-2.5
					c1.9,0,3.5,0.7,5.5,2.2c4.5,6.8,13.2,9.6,23.4,9.6c14.7,0,26.5-12,26.5-26.7c0-3.4,0.9-3.7,2.5-4.6c1.6-0.9,3-0.3,6.2,0.4
					c4.1,0.9,7.7,2.3,12.5,1.8c8.7-0.9,15.9-7.7,17.3-16.3C232.4,153.9,223,143.4,211.1,143.4z"/>
			</defs>
			<clipPath id="SVGID_8_">
				<use xlink:href="#SVGID_7_"  style="overflow:visible;"/>
			</clipPath>
			<g class="st3">
				<circle class="st4" cx="181" cy="143" r="15.7"/>
				<circle class="st5" cx="180.9" cy="143.5" r="9.8"/>
				<circle class="st4" cx="106.8" cy="150.3" r="15.7"/>
				<circle class="st5" cx="106.7" cy="150.9" r="9.8"/>
			</g>
		</g>
	</g>
	
		<radialGradient id="SVGID_9_" cx="80.99" cy="147.525" r="3.1781" gradientTransform="matrix(1 0 0 -1 0 266.525)" gradientUnits="userSpaceOnUse">
		<stop  offset="0" style="stop-color:#FFFFFF"/>
		<stop  offset="1" style="stop-color:#FFFFFF"/>
	</radialGradient>
	<circle class="st6" cx="81" cy="119" r="3.2"/>
	
		<radialGradient id="SVGID_10_" cx="104.3176" cy="179.7739" r="3.1789" gradientTransform="matrix(1 0 0 -1 0 266.525)" gradientUnits="userSpaceOnUse">
		<stop  offset="0" style="stop-color:#FFFFFF"/>
		<stop  offset="1" style="stop-color:#FFFFFF"/>
	</radialGradient>
	<circle class="st7" cx="104.3" cy="86.8" r="3.2"/>
	
		<radialGradient id="SVGID_11_" cx="85.079" cy="184.9042" r="3.1789" gradientTransform="matrix(1 0 0 -1 0 266.525)" gradientUnits="userSpaceOnUse">
		<stop  offset="0" style="stop-color:#FFFFFF"/>
		<stop  offset="1" style="stop-color:#FFFFFF"/>
	</radialGradient>
	<circle class="st8" cx="85.1" cy="81.6" r="3.2"/>
	
		<radialGradient id="SVGID_12_" cx="116.5605" cy="171.1683" r="3.1789" gradientTransform="matrix(1 0 0 -1 0 266.525)" gradientUnits="userSpaceOnUse">
		<stop  offset="0" style="stop-color:#FFFFFF"/>
		<stop  offset="1" style="stop-color:#FFFFFF"/>
	</radialGradient>
	<circle class="st9" cx="116.6" cy="95.4" r="3.2"/>
	
		<radialGradient id="SVGID_13_" cx="143.3892" cy="196.5392" r="3.1789" gradientTransform="matrix(1 0 0 -1 0 266.525)" gradientUnits="userSpaceOnUse">
		<stop  offset="0" style="stop-color:#FFFFFF"/>
		<stop  offset="1" style="stop-color:#FFFFFF"/>
	</radialGradient>
	<circle class="st10" cx="143.4" cy="70" r="3.2"/>
	
		<radialGradient id="SVGID_14_" cx="115.1443" cy="201.4574" r="3.1789" gradientTransform="matrix(1 0 0 -1 0 266.525)" gradientUnits="userSpaceOnUse">
		<stop  offset="0" style="stop-color:#FFFFFF"/>
		<stop  offset="1" style="stop-color:#FFFFFF"/>
	</radialGradient>
	<circle class="st11" cx="115.1" cy="65.1" r="3.2"/>
	
		<radialGradient id="SVGID_15_" cx="189.6253" cy="171.5474" r="3.1762" gradientTransform="matrix(1 0 0 -1 0 266.525)" gradientUnits="userSpaceOnUse">
		<stop  offset="0" style="stop-color:#FFFFFF"/>
		<stop  offset="1" style="stop-color:#FFFFFF"/>
	</radialGradient>
	<circle class="st12" cx="189.6" cy="95" r="3.2"/>
	
		<radialGradient id="SVGID_16_" cx="174.9275" cy="158.8854" r="3.1789" gradientTransform="matrix(1 0 0 -1 0 266.525)" gradientUnits="userSpaceOnUse">
		<stop  offset="0" style="stop-color:#FFFFFF"/>
		<stop  offset="1" style="stop-color:#FFFFFF"/>
	</radialGradient>
	<circle class="st13" cx="174.9" cy="107.6" r="3.2"/>
	
		<radialGradient id="SVGID_17_" cx="174.7705" cy="171.9132" r="3.1789" gradientTransform="matrix(1 0 0 -1 0 266.525)" gradientUnits="userSpaceOnUse">
		<stop  offset="0" style="stop-color:#FFFFFF"/>
		<stop  offset="1" style="stop-color:#FFFFFF"/>
	</radialGradient>
	<circle class="st14" cx="174.8" cy="94.6" r="3.2"/>
	
		<radialGradient id="SVGID_18_" cx="149.3529" cy="179.5718" r="3.1789" gradientTransform="matrix(1 0 0 -1 0 266.525)" gradientUnits="userSpaceOnUse">
		<stop  offset="0" style="stop-color:#FFFFFF"/>
		<stop  offset="1" style="stop-color:#FFFFFF"/>
	</radialGradient>
	<circle class="st15" cx="149.4" cy="87" r="3.2"/>
	
		<radialGradient id="SVGID_19_" cx="165.1" cy="196.625" r="3.1825" gradientTransform="matrix(1 0 0 -1 0 266.525)" gradientUnits="userSpaceOnUse">
		<stop  offset="0" style="stop-color:#FFFFFF"/>
		<stop  offset="1" style="stop-color:#FFFFFF"/>
	</radialGradient>
	<circle class="st16" cx="165.1" cy="69.9" r="3.2"/>
	
		<radialGradient id="SVGID_20_" cx="174.4365" cy="194.6487" r="3.1789" gradientTransform="matrix(1 0 0 -1 0 266.525)" gradientUnits="userSpaceOnUse">
		<stop  offset="0" style="stop-color:#FFFFFF"/>
		<stop  offset="1" style="stop-color:#FFFFFF"/>
	</radialGradient>
	<circle class="st17" cx="174.4" cy="71.9" r="3.2"/>
</g>
</svg>
